<?xml version="1.0" encoding="UTF-8" standalone="no"?>
<!-- Created with Inkscape (http://www.inkscape.org/) -->

<svg
   width="196"
   height="196"
   viewBox="0 0 51.858334 51.858334"
   version="1.1"
   id="svg507"
   inkscape:version="1.2.2 (b0a84865, 2022-12-01)"
   sodipodi:docname="favicon-simple.svg"
   xmlns:inkscape="http://www.inkscape.org/namespaces/inkscape"
   xmlns:sodipodi="http://sodipodi.sourceforge.net/DTD/sodipodi-0.dtd"
   xmlns="http://www.w3.org/2000/svg"
   xmlns:svg="http://www.w3.org/2000/svg">
  <sodipodi:namedview
     id="namedview509"
     pagecolor="#ffffff"
     bordercolor="#000000"
     borderopacity="0.25"
     inkscape:showpageshadow="2"
     inkscape:pageopacity="0.0"
     inkscape:pagecheckerboard="0"
     inkscape:deskcolor="#d1d1d1"
     inkscape:document-units="mm"
     showgrid="false"
     inkscape:zoom="0.2102413"
     inkscape:cx="4.7564393"
     inkscape:cy="-337.70719"
     inkscape:window-width="1309"
     inkscape:window-height="456"
     inkscape:window-x="0"
     inkscape:window-y="38"
     inkscape:window-maximized="0"
     inkscape:current-layer="layer1" />
  <defs
     id="defs504" />
  <g
     inkscape:label="Layer 1"
     inkscape:groupmode="layer"
     id="layer1"
     transform="translate(-103.69371,-238.35049)">
    <g
       id="g5034"
       inkscape:label="Flower Group"
       inkscape:export-filename="favicon64.png"
       inkscape:export-xdpi="31.346939"
       inkscape:export-ydpi="31.346939"
       style="display:inline"
       transform="matrix(0.26458333,0,0,0.26458333,-31.77295,238.35049)">
      <rect
         style="display:inline;fill:#363636;fill-opacity:1;stroke:none;stroke-width:8.38797;stroke-linecap:round;stroke-linejoin:round;stroke-dasharray:none;stroke-opacity:1"
         id="rect5030"
         width="196"
         height="196"
         x="512"
         y="0"
         inkscape:label="Page 196" />
      <path
         id="path7305"
         style="display:inline;fill:#f5f5f5;fill-opacity:1;stroke:none;stroke-opacity:1"
         d="m 671.75,31 c -2,4 -20.1089,5.38698 -5.5,16.75 14.49767,11.276508 15.5,-7.75 5.5,-16.75 z m -35.62267,15.059636 c 27.55711,-14.594832 39.28065,17.517661 31.75647,19.742446 -6.2412,1.845428 -15.37001,-21.878015 -31.75647,-19.742446 z m 10.5718,6.257749 c 17.92934,8.698722 25.39762,48.839385 1.99426,45.889305 -16.51637,-2.08195 8.43709,-31.894747 -1.99426,-45.889305 z M 612.45279,174.76323 c 1.05151,-12.68887 21.02412,-1.27059 49.3448,-26.73167 -11.42133,32.23489 -50.88957,45.37289 -49.3448,26.73167 z M 662.59015,66.705621 c 30.70132,39.329439 -8.55876,94.673779 -18.70096,82.321629 -18.12311,-22.07208 35.57003,-29.7737 18.70096,-82.321629 z m 21.94773,-12.766689 c -5.94612,6.438578 -14.49793,3.6357 -13.62607,17.912706 1.406,23.023707 18.03232,-0.92133 13.62607,-17.912706 z m -44.66161,75.271508 c -31.33189,15.54418 -22.74509,35.63652 -7.99461,30.76508 15.27172,-5.04358 -5.11422,-15.78017 7.99461,-30.76508 z m -8.4903,-41.37605 c -2.18535,22.32865 39.23509,1.577256 19.7015,28.6293 -17.53451,24.28352 -34.42133,-7.01832 -19.7015,-28.6293 z m 4.77796,-73.637839 c 23.52163,7.747682 23.9763,28.726553 7.08948,25.958987 -30.88881,-5.06234 -1.64036,-19.855807 -7.08948,-25.958987 z m 9.60436,37.067971 c -22.29727,-11.977775 -70.21746,59.454178 -51.06442,63.269208 24.76324,4.9325 13.85201,-61.951108 51.06442,-63.269208 z M 593.7847,84.196538 c -16.48457,4.415653 -28.87338,28.093352 -17.61443,25.920112 11.55371,-2.23014 11.94349,-17.991772 17.61443,-25.920112 z m -20.0294,3.254941 c -16.94685,-4.998522 -33.82237,19.736181 -22.68513,23.980011 14.23982,5.42607 14.74332,-17.079157 22.68513,-23.980011 z M 556.03489,73.285774 c -19.88821,5.857785 -24.73614,12.441208 -22.35577,21.355726 2.94835,11.04161 20.81063,-13.268788 22.35577,-21.355726 z m 14.87374,-24.39964 c -22.63576,9.025856 -39.02293,5.359105 -37.97909,17.939016 1.26697,15.268835 22.26681,-8.524154 37.97909,-17.939016 z m 39.82326,-8.519388 c -17.72254,-9.745214 -68.62933,-12.448079 -64.88144,-2.254312 9.3192,25.346976 35.80387,-2.154098 64.88144,2.254312 z m 28.08619,1.18858 C 612.75883,32.625372 593.64079,4.7297789 577.3278,16.019776 c -9.34405,6.466884 43.55377,27.715374 61.49028,25.53555 z m -4.86853,5.007538 c -20.31032,5.498914 -28.56382,35.447813 -58.04523,35.26399 -19.65566,-0.122557 -20.55079,-12.74307 -11.17413,-23.036777 10.2826,-11.288243 38.63068,-22.584503 69.21936,-12.227213 z"
         sodipodi:nodetypes="csccsccscscscsccsccsccsccsccsccsccsccsccsccsccsccssc"
         inkscape:label="Flower" />
    </g>
  </g>
</svg>
